<svg width="766" height="211" viewBox="0 0 766 211" fill="none" xmlns="http://www.w3.org/2000/svg">
<path d="M34.1984 56.158L46.2104 140.18C48.4796 156.052 68.1315 162.54 79.6071 151.205L85.0184 145.86L77.5438 93.5764C76.0423 83.0733 85.1497 74.0775 95.7832 75.5606L148.716 82.9436L152.659 79.0481C164.135 67.7131 157.567 48.3021 141.497 46.0607L56.4329 34.196C43.4703 32.388 32.368 43.3542 34.1984 56.158Z" fill="#C5E2DE"/>
<path d="M77.5439 93.5765C76.0424 83.0734 85.1498 74.0776 95.7833 75.5607L165.563 85.2934C178.745 87.1321 184.133 103.055 174.719 112.354L114.793 171.545C105.38 180.843 89.2588 175.521 87.3973 162.501L77.5439 93.5765Z" fill="#00826E"/>
<path d="M237.549 150.791H248.845L270.455 77.1221H270.7L292.187 150.791H303.36L328.898 63.8618H318.094L297.957 136.057H297.712L276.471 63.8618H264.929L243.565 136.057H243.32L223.552 63.8618H212.134L237.549 150.791Z" fill="#064946"/>
<path d="M328.438 122.06C328.438 139.986 341.453 152.264 359.133 152.264C376.814 152.264 389.828 139.986 389.828 122.06C389.828 104.134 376.814 91.856 359.133 91.856C341.453 91.856 328.438 104.134 328.438 122.06ZM338.751 122.06C338.751 110.028 346.732 100.696 359.133 100.696C371.534 100.696 379.515 110.028 379.515 122.06C379.515 134.093 371.534 143.424 359.133 143.424C346.732 143.424 338.751 134.093 338.751 122.06Z" fill="#064946"/>
<path d="M404.654 150.791H414.231V122.797C414.231 109.659 419.388 101.433 431.052 101.433C432.771 101.433 434.613 101.678 436.209 102.17L436.823 92.4699C435.472 91.9788 434.122 91.856 432.894 91.856C423.44 91.856 416.318 97.1356 413.74 102.783H413.494C413.494 99.5912 413.249 96.3989 413.249 93.3294H404.163C404.163 97.1356 404.654 101.678 404.654 106.958V150.791Z" fill="#064946"/>
<path d="M447.819 150.791H457.396V120.587L485.881 150.791H500.001L469.429 119.482L497.177 93.3294H483.549L457.396 118.622V57.9685H447.819V150.791Z" fill="#064946"/>
<path d="M510.929 150.791H521.242V111.746H561.76V102.17H521.242V73.4387H564.83V63.8618H510.929V150.791Z" fill="#064946"/>
<path d="M578.294 150.791H587.871V57.9685H578.294V150.791Z" fill="#064946"/>
<path d="M651.009 134.706C646.466 140.477 640.941 143.424 632.715 143.424C622.279 143.424 614.666 134.952 613.93 125.007H660.341V121.937C660.341 102.906 649.29 91.856 633.083 91.856C616.14 91.856 603.616 104.257 603.616 122.06C603.616 138.758 614.666 152.264 632.715 152.264C643.397 152.264 651.5 149.072 658.253 140.354L651.009 134.706ZM613.93 116.903C615.157 107.204 622.156 100.696 632.715 100.696C643.274 100.696 649.659 107.204 650.027 116.903H613.93Z" fill="#064946"/>
<path d="M666.438 150.791H678.348L696.274 125.989L714.446 150.791H727.092L703.396 119.85L723.163 93.3293H711.499L697.134 113.957L681.909 93.3293H669.385L690.012 119.85L666.438 150.791Z" fill="#064946"/>
<path fill-rule="evenodd" clip-rule="evenodd" d="M445.819 55.9685H459.396V113.906L482.74 91.3294H502.215L472.282 119.541L504.75 152.791H485.018L459.396 125.622V152.791H445.819V55.9685ZM459.237 119.624L486.744 148.791H495.253L466.576 119.422L492.139 95.3294H484.357L459.237 119.624ZM455.396 59.9685H449.819V148.791H455.396V59.9685ZM576.294 55.9685H589.871V152.791H576.294V55.9685ZM580.294 59.9685V148.791H585.871V59.9685H580.294ZM209.465 61.862H225.078L243.513 129.188L263.435 61.862H277.967L297.787 129.225L316.575 61.862H331.57L304.857 152.791H290.687L270.572 83.8267L250.343 152.791H236.05L209.465 61.862ZM214.802 65.862L239.048 148.791H247.347L268.957 75.1223H272.2L293.687 148.791H301.863L326.226 65.862H319.612L299.476 138.057H296.216L274.974 65.862H266.423L245.059 138.057H241.794L222.026 65.862H214.802ZM508.929 61.862H566.83V75.4389H523.242V100.17H563.76V113.746H523.242V152.791H508.929V61.862ZM512.929 65.862V148.791H519.242V109.746H559.76V104.17H519.242V71.4389H562.83V65.862H512.929ZM326.438 122.06C326.438 102.976 340.402 89.856 359.133 89.856C377.864 89.856 391.828 102.976 391.828 122.06C391.828 141.144 377.864 154.264 359.133 154.264C340.402 154.264 326.438 141.144 326.438 122.06ZM359.133 93.856C342.503 93.856 330.438 105.292 330.438 122.06C330.438 138.828 342.503 150.264 359.133 150.264C375.763 150.264 387.828 138.828 387.828 122.06C387.828 105.292 375.763 93.856 359.133 93.856ZM415.334 97.0011C419.28 92.878 425.473 89.856 432.894 89.856C434.248 89.856 435.855 89.9898 437.506 90.5903L438.913 91.102L438.045 104.827L435.621 104.081C434.24 103.656 432.599 103.433 431.052 103.433C425.745 103.433 422.183 105.271 419.873 108.381C417.487 111.593 416.231 116.439 416.231 122.797V152.791H402.654V106.958C402.654 104.377 402.534 101.968 402.411 99.6992C402.401 99.5107 402.391 99.3229 402.381 99.1357C402.27 97.092 402.163 95.1344 402.163 93.3294V91.3294H415.249V93.3294C415.249 94.5251 415.287 95.7444 415.334 97.0011ZM432.894 93.856C424.163 93.856 417.788 98.7313 415.559 103.614L415.025 104.783H411.494V102.783C411.494 101.232 411.435 99.6745 411.373 98.088L411.371 98.0234C411.336 97.1321 411.301 96.2306 411.277 95.3294H406.202C406.241 96.4577 406.306 97.6565 406.376 98.942C406.386 99.1207 406.396 99.3012 406.406 99.4833C406.529 101.757 406.654 104.26 406.654 106.958V148.791H412.231V122.797C412.231 116.017 413.553 110.181 416.662 105.996C419.847 101.708 424.695 99.4329 431.052 99.4329C432.129 99.4329 433.256 99.5199 434.361 99.6978L434.723 93.9876C434.12 93.8908 433.508 93.856 432.894 93.856ZM601.616 122.06C601.616 103.18 615.008 89.856 633.083 89.856C641.658 89.856 649.033 92.7915 654.253 98.397C659.462 103.989 662.341 112.038 662.341 121.937V127.007H616.203C617.716 135.084 624.229 141.424 632.715 141.424C636.583 141.424 639.709 140.733 642.364 139.433C645.019 138.133 647.312 136.17 649.438 133.469L650.669 131.905L661.055 140.003L659.835 141.579C656.284 146.162 652.319 149.364 647.777 151.403C643.246 153.437 638.254 154.264 632.715 154.264C623.161 154.264 615.341 150.674 609.924 144.777C604.526 138.899 601.616 130.846 601.616 122.06ZM633.083 93.856C617.271 93.856 605.616 105.334 605.616 122.06C605.616 129.972 608.231 137.021 612.87 142.071C617.49 147.101 624.221 150.264 632.715 150.264C637.858 150.264 642.258 149.496 646.139 147.754C649.503 146.243 652.562 143.963 655.409 140.673L651.301 137.47C649.203 139.816 646.854 141.688 644.123 143.025C640.823 144.641 637.074 145.424 632.715 145.424C621.068 145.424 612.736 135.972 611.935 125.155L611.776 123.007H658.341V121.937C658.341 112.805 655.694 105.813 651.326 101.123C646.97 96.4457 640.716 93.856 633.083 93.856ZM665.296 91.3294H682.918L697.086 110.525L710.455 91.3294H727.148L705.902 119.834L731.143 152.791H713.432L696.285 129.388L679.37 152.791H662.4L687.488 119.863L665.296 91.3294ZM673.475 95.3294L692.536 119.837L670.477 148.791H677.326L696.263 122.59L715.46 148.791H723.041L700.889 119.866L719.178 95.3294H712.543L697.181 117.388L680.899 95.3294H673.475ZM345.761 108.223C342.597 111.647 340.751 116.484 340.751 122.06C340.751 127.636 342.597 132.473 345.761 135.897C348.909 139.304 353.463 141.424 359.133 141.424C364.803 141.424 369.357 139.304 372.505 135.897C375.669 132.473 377.515 127.636 377.515 122.06C377.515 116.484 375.669 111.647 372.505 108.223C369.357 104.816 364.803 102.696 359.133 102.696C353.463 102.696 348.909 104.816 345.761 108.223ZM342.823 105.509C346.765 101.242 352.402 98.6963 359.133 98.6963C365.864 98.6963 371.501 101.242 375.443 105.509C379.37 109.759 381.515 115.603 381.515 122.06C381.515 128.517 379.37 134.362 375.443 138.611C371.501 142.878 365.864 145.424 359.133 145.424C352.402 145.424 346.765 142.878 342.823 138.611C338.896 134.362 336.751 128.517 336.751 122.06C336.751 115.603 338.896 109.759 342.823 105.509ZM616.327 114.903H647.842C647.341 111.443 645.926 108.636 643.809 106.606C641.284 104.186 637.576 102.696 632.715 102.696C627.857 102.696 623.957 104.186 621.145 106.663C618.825 108.707 617.155 111.503 616.327 114.903ZM618.501 103.662C622.135 100.46 627.014 98.6963 632.715 98.6963C638.413 98.6963 643.177 100.46 646.577 103.718C649.974 106.975 651.825 111.55 652.026 116.827L652.104 118.903H611.66L611.945 116.652C612.613 111.38 614.869 106.861 618.501 103.662Z" fill="#064946"/>
</svg>
